<svg width="18" height="18" viewBox="0 0 18 18" fill="none" xmlns="http://www.w3.org/2000/svg">
<path d="M15.7184 9.00703C14.1258 7.17188 11.925 5.0625 9 5.0625C7.81875 5.0625 6.73594 5.39648 5.59336 6.11016C4.63008 6.71484 3.64219 7.56562 2.28516 8.96484L2.25 9L2.48555 9.24258C4.42266 11.2254 6.09609 12.9375 9 12.9375C10.2832 12.9375 11.5277 12.5191 12.8039 11.6578C13.8902 10.923 14.8148 9.99141 15.5566 9.23906L15.75 9.0457L15.7184 9.00703ZM9 11.8125C7.44961 11.8125 6.1875 10.5504 6.1875 9C6.1875 7.44961 7.44961 6.1875 9 6.1875C10.5504 6.1875 11.8125 7.44961 11.8125 9C11.8125 10.5504 10.5504 11.8125 9 11.8125Z" fill="#FCF7F7"/>
<path d="M8.80312 7.97344C8.80312 7.73086 8.87344 7.50234 8.99648 7.3125C8.06484 7.3125 7.3125 8.07188 7.3125 9.00703C7.3125 9.94219 8.06836 10.698 8.99648 10.698C9.92461 10.698 10.684 9.94219 10.684 9.00703C10.4941 9.13008 10.2656 9.20039 10.023 9.20039C9.35156 9.19688 8.80312 8.64844 8.80312 7.97344Z" fill="#FCF7F7"/>
</svg>
